<svg width="700" height="142" viewBox="0 0 700 142" fill="none" xmlns="http://www.w3.org/2000/svg">
<path d="M68.6746 39.7438V0.166992C56.5478 1.55103 45.9368 14.1062 39.7087 32.5271C48.5072 36.8769 58.3272 39.4143 68.6746 39.7438Z" fill="#2563EB"/>
<path d="M100.672 18.1924C102.715 21.982 104.495 26.0682 106.011 30.451C111.118 27.5182 115.831 23.9922 120.049 19.906C111.217 11.404 100.211 5.17586 87.9522 2.11121C92.6975 5.93378 96.9814 11.3381 100.672 18.1924Z" fill="#2563EB"/>
<path d="M41.1257 18.1924C44.8164 11.3381 49.1333 5.93378 53.8456 2.11121C41.587 5.14291 30.5806 11.404 21.7491 19.906C25.9672 23.9592 30.6795 27.5182 35.7872 30.451C37.3031 26.0682 39.0826 21.982 41.1257 18.1924Z" fill="#2563EB"/>
<path d="M34.3702 34.7679C28.6034 31.5714 23.3309 27.617 18.6186 23.0695C7.48039 35.1963 0.527252 51.1786 0 68.7756H29.3613C29.5261 56.6818 31.2726 45.1152 34.3702 34.7679Z" fill="#2563EB"/>
<path d="M29.3613 73.2244H0C0.560205 90.7884 7.48039 106.804 18.6186 118.898C23.3309 114.35 28.6364 110.429 34.3702 107.199C31.2726 96.8848 29.5261 85.2853 29.3613 73.2244Z" fill="#2563EB"/>
<path d="M41.1257 123.775C39.0826 119.985 37.3031 115.899 35.7872 111.516C30.6795 114.449 25.9672 117.975 21.7491 122.061C30.5806 130.563 41.587 136.791 53.8456 139.856C49.1003 136.066 44.8164 130.662 41.1257 123.775Z" fill="#2563EB"/>
<path d="M112.436 68.7756H141.798C141.238 51.2115 134.317 35.1963 123.179 23.1024C118.467 27.65 113.161 31.5714 107.428 34.8008C110.525 45.1152 112.272 56.6818 112.436 68.7756Z" fill="#2563EB"/>
<path d="M108.021 69.0393C107.955 68.9404 107.889 68.8745 107.823 68.7757H108.021C107.823 57.242 106.208 46.3674 103.44 36.844C97.3769 39.7438 90.8521 41.8529 84.0308 43.0721C83.0093 41.2597 81.4605 39.9416 79.5162 39.2496C87.5239 38.2939 95.1361 35.9872 102.089 32.56C95.861 14.1392 85.2501 1.55103 73.1233 0.199951V39.0189C70.4541 39.7109 68.411 41.4904 67.3235 44.1596C57.0091 43.6653 47.222 41.1279 38.3905 36.8769C35.6554 46.4004 34.0078 57.275 33.81 68.8086H66.1701V73.2573H33.81C34.0078 84.7909 35.6225 95.6655 38.3905 105.189C43.8278 102.586 49.5947 100.609 55.6251 99.3892C56.5807 100.51 57.5693 101.861 58.5579 103.344C51.9343 104.497 45.6073 106.606 39.7416 109.473C45.9698 127.894 56.5807 140.482 68.7075 141.833V129.706C69.4325 130.629 70.5529 131.222 71.8381 131.222H73.1562V141.833C79.5162 141.108 85.4478 137.318 90.5555 131.222H96.0917C93.5872 134.682 90.8851 137.582 88.0181 139.889C100.277 136.857 111.283 130.596 120.115 122.094C117.61 119.688 114.908 117.448 112.074 115.405C112.601 114.02 113.194 112.603 113.788 111.154C117.149 113.493 120.312 116.064 123.245 118.898C134.35 106.771 141.304 90.7884 141.864 73.2244H116.72C114.578 70.5551 111.547 69.0723 108.021 69.0393ZM58.1625 96.1598C54.0104 91.5793 47.2879 84.9557 54.2411 81.0013C55.2297 80.4411 56.2182 80.1775 57.2398 80.1775C62.4464 80.1775 67.5542 86.9329 70.1575 90.4589C70.1575 90.4589 70.1575 57.8352 70.1575 52.7933C70.1575 47.7515 70.2893 42.6108 75.8584 42.6108C81.4275 42.6108 81.6911 47.3561 81.6911 52.3979C81.6911 57.4398 81.6911 69.4018 81.6911 69.4018C81.6911 69.4018 83.5365 66.6008 87.8863 66.6008C87.9852 66.6008 88.117 66.6008 88.2159 66.6008C93.1588 66.7655 94.477 69.8302 94.477 69.8302C94.477 69.8302 95.8281 68.8416 98.5632 68.8416C99.1234 68.8416 99.7825 68.8745 100.474 69.0064C103.177 69.4018 105.286 71.2801 105.813 73.2903C105.813 73.2903 106.703 73.0266 107.922 73.0266C109.998 73.0266 113.096 73.7846 114.776 77.9037C121.565 94.644 105.088 113.164 105.088 127.235H71.8051C71.2779 119.688 65.1815 103.97 58.1625 96.1598Z" fill="#2563EB"/>
<path d="M184.412 105.506H172.94V39.2253H184.412V105.506ZM207.765 56.2507L208.084 61.941C211.726 57.5405 216.505 55.3403 222.423 55.3403C232.681 55.3403 237.901 61.2127 238.083 72.9575V105.506H227.021V73.5948C227.021 70.4689 226.346 68.1548 224.995 66.6526C223.645 65.1504 221.437 64.3992 218.372 64.3992C213.911 64.3992 210.588 66.4174 208.402 70.4537V105.506H197.34V56.2507H207.765ZM263.212 44.2783V56.2507H271.906V64.4448H263.212V91.9404C263.212 93.822 263.583 95.18 264.327 96.0146C265.07 96.8492 266.398 97.2665 268.31 97.2665C269.585 97.2665 270.875 97.1147 272.179 96.8113V105.369C269.661 106.068 267.233 106.417 264.896 106.417C256.398 106.417 252.15 101.728 252.15 92.3501V64.4448H244.047V56.2507H252.15V44.2783H263.212ZM302.042 106.417C295.032 106.417 289.349 104.209 284.994 99.793C280.639 95.3773 278.462 89.4973 278.462 82.153V80.7873C278.462 75.8709 279.41 71.478 281.307 67.6086C283.204 63.7392 285.867 60.7271 289.296 58.5724C292.725 56.4176 296.549 55.3403 300.768 55.3403C307.475 55.3403 312.657 57.4798 316.314 61.7589C319.971 66.0381 321.799 72.0925 321.799 79.9224V84.3836H289.615C289.948 88.4503 291.307 91.6672 293.689 94.0344C296.071 96.4016 299.068 97.5851 302.68 97.5851C307.748 97.5851 311.875 95.5366 315.062 91.4396L321.025 97.1299C319.052 100.074 316.42 102.357 313.127 103.981C309.834 105.605 306.139 106.417 302.042 106.417ZM300.722 64.2172C297.687 64.2172 295.237 65.2793 293.37 67.4037C291.504 69.5281 290.313 72.4871 289.797 76.2806H310.874V75.4612C310.631 71.7587 309.645 68.9591 307.915 67.0623C306.185 65.1655 303.787 64.2172 300.722 64.2172ZM356.169 66.3567C354.712 66.1139 353.21 65.9925 351.662 65.9925C346.594 65.9925 343.179 67.9348 341.419 71.8194V105.506H330.357V56.2507H340.918L341.192 61.7589C343.862 57.4798 347.565 55.3403 352.299 55.3403C353.877 55.3403 355.182 55.5527 356.214 55.9776L356.169 66.3567ZM381.342 91.4851L391.767 56.2507H403.193L386.122 105.506H376.517L359.31 56.2507H370.781L381.342 91.4851ZM421.857 105.506H410.796V56.2507H421.857V105.506ZM410.113 43.4589C410.113 41.7594 410.651 40.3482 411.729 39.2253C412.806 38.1024 414.346 37.541 416.349 37.541C418.352 37.541 419.9 38.1024 420.993 39.2253C422.085 40.3482 422.631 41.7594 422.631 43.4589C422.631 45.128 422.085 46.5165 420.993 47.6242C419.9 48.7319 418.352 49.2858 416.349 49.2858C414.346 49.2858 412.806 48.7319 411.729 47.6242C410.651 46.5165 410.113 45.128 410.113 43.4589ZM455.59 106.417C448.579 106.417 442.896 104.209 438.541 99.793C434.186 95.3773 432.009 89.4973 432.009 82.153V80.7873C432.009 75.8709 432.957 71.478 434.854 67.6086C436.751 63.7392 439.414 60.7271 442.843 58.5724C446.273 56.4176 450.097 55.3403 454.315 55.3403C461.022 55.3403 466.204 57.4798 469.861 61.7589C473.518 66.0381 475.346 72.0925 475.346 79.9224V84.3836H443.162C443.496 88.4503 444.854 91.6672 447.236 94.0344C449.619 96.4016 452.616 97.5851 456.227 97.5851C461.295 97.5851 465.423 95.5366 468.609 91.4396L474.573 97.1299C472.6 100.074 469.967 102.357 466.674 103.981C463.382 105.605 459.687 106.417 455.59 106.417ZM454.27 64.2172C451.235 64.2172 448.784 65.2793 446.918 67.4037C445.051 69.5281 443.86 72.4871 443.344 76.2806H464.421V75.4612C464.178 71.7587 463.192 68.9591 461.462 67.0623C459.732 65.1655 457.335 64.2172 454.27 64.2172ZM527.197 90.256L535.026 56.2507H545.815L532.386 105.506H523.282L512.72 71.6828L502.341 105.506H493.237L479.762 56.2507H490.551L498.517 89.8918L508.623 56.2507H516.954L527.197 90.256ZM564.115 61.6224C567.727 57.4343 572.294 55.3403 577.818 55.3403C588.318 55.3403 593.644 61.3341 593.796 73.3217V105.506H582.734V73.7314C582.734 70.3323 581.998 67.9272 580.526 66.516C579.054 65.1048 576.892 64.3992 574.039 64.3992C569.608 64.3992 566.3 66.3719 564.115 70.3172V105.506H553.053V35.5835H564.115V61.6224ZM634.812 100.681C631.565 104.505 626.952 106.417 620.973 106.417C615.632 106.417 611.588 104.854 608.841 101.728C606.095 98.6018 604.721 94.0799 604.721 88.162V56.2507H615.783V88.0254C615.783 94.2772 618.378 97.4031 623.568 97.4031C628.939 97.4031 632.566 95.4759 634.448 91.6217V56.2507H645.51V105.506H635.085L634.812 100.681ZM700 81.3791C700 89.0269 698.293 95.1118 694.879 99.6337C691.465 104.156 686.768 106.417 680.789 106.417C675.023 106.417 670.532 104.338 667.315 100.18L666.769 105.506H656.754V35.5835H667.816V60.9851C671.002 57.2219 675.296 55.3403 680.698 55.3403C686.707 55.3403 691.427 57.5709 694.856 62.0321C698.285 66.4933 700 72.7299 700 80.7418V81.3791ZM688.938 80.4232C688.938 75.0819 687.997 71.0759 686.116 68.4052C684.234 65.7346 681.503 64.3992 677.922 64.3992C673.127 64.3992 669.758 66.4933 667.816 70.6813V90.9844C669.788 95.2635 673.187 97.4031 678.013 97.4031C681.472 97.4031 684.143 96.1133 686.025 93.5336C687.906 90.954 688.877 87.0543 688.938 81.8344V80.4232Z" fill="black"/>
</svg>
