<svg width="700" height="142" viewBox="0 0 700 142" fill="none" xmlns="http://www.w3.org/2000/svg">
<path d="M68.6746 39.5768V0C56.5478 1.38404 45.9368 13.9392 39.7087 32.3601C48.5072 36.7099 58.3272 39.2473 68.6746 39.5768Z" fill="#2563EB"/>
<path d="M100.672 18.0254C102.715 21.815 104.495 25.9012 106.011 30.284C111.118 27.3512 115.831 23.8252 120.049 19.739C111.217 11.237 100.211 5.00887 87.9522 1.94421C92.6975 5.76679 96.9814 11.1711 100.672 18.0254Z" fill="#2563EB"/>
<path d="M41.1257 18.0254C44.8164 11.1711 49.1333 5.76679 53.8456 1.94421C41.587 4.97591 30.5806 11.237 21.7491 19.739C25.9672 23.7922 30.6795 27.3512 35.7872 30.284C37.3031 25.9012 39.0826 21.815 41.1257 18.0254Z" fill="#2563EB"/>
<path d="M34.3702 34.6009C28.6034 31.4044 23.3309 27.45 18.6186 22.9025C7.48039 35.0293 0.527252 51.0116 0 68.6086H29.3613C29.5261 56.5148 31.2726 44.9482 34.3702 34.6009Z" fill="#2563EB"/>
<path d="M29.3613 73.0574H0C0.560205 90.6215 7.48039 106.637 18.6186 118.731C23.3309 114.183 28.6364 110.262 34.3702 107.032C31.2726 96.7178 29.5261 85.1183 29.3613 73.0574Z" fill="#2563EB"/>
<path d="M41.1257 123.608C39.0826 119.818 37.3031 115.732 35.7872 111.349C30.6795 114.282 25.9672 117.808 21.7491 121.894C30.5806 130.396 41.587 136.624 53.8456 139.689C49.1003 135.899 44.8164 130.495 41.1257 123.608Z" fill="#2563EB"/>
<path d="M112.436 68.6086H141.798C141.238 51.0445 134.317 35.0293 123.179 22.9354C118.467 27.483 113.161 31.4044 107.428 34.6338C110.525 44.9482 112.272 56.5148 112.436 68.6086Z" fill="#2563EB"/>
<path d="M108.021 68.8723C107.955 68.7735 107.889 68.7075 107.823 68.6087H108.021C107.823 57.075 106.208 46.2005 103.44 36.677C97.3769 39.5768 90.8521 41.6859 84.0308 42.9051C83.0093 41.0927 81.4605 39.7746 79.5162 39.0826C87.5239 38.1269 95.1361 35.8202 102.089 32.393C95.861 13.9722 85.2501 1.38404 73.1233 0.032959V38.8519C70.4541 39.5439 68.411 41.3234 67.3235 43.9926C57.0091 43.4983 47.222 40.9609 38.3905 36.7099C35.6554 46.2334 34.0078 57.108 33.81 68.6416H66.1701V73.0903H33.81C34.0078 84.6239 35.6225 95.4985 38.3905 105.022C43.8278 102.419 49.5947 100.442 55.6251 99.2223C56.5807 100.343 57.5693 101.694 58.5579 103.177C51.9343 104.33 45.6073 106.439 39.7416 109.306C45.9698 127.727 56.5807 140.315 68.7075 141.666V129.539C69.4325 130.462 70.5529 131.055 71.8381 131.055H73.1562V141.666C79.5162 140.941 85.4478 137.151 90.5555 131.055H96.0917C93.5872 134.515 90.8851 137.415 88.0181 139.722C100.277 136.69 111.283 130.429 120.115 121.927C117.61 119.521 114.908 117.281 112.074 115.238C112.601 113.853 113.194 112.436 113.788 110.987C117.149 113.326 120.312 115.897 123.245 118.731C134.35 106.604 141.304 90.6214 141.864 73.0574H116.72C114.578 70.3881 111.547 68.9053 108.021 68.8723ZM58.1625 95.9928C54.0104 91.4123 47.2879 84.7887 54.2411 80.8343C55.2297 80.2741 56.2182 80.0105 57.2398 80.0105C62.4464 80.0105 67.5542 86.7659 70.1575 90.2919C70.1575 90.2919 70.1575 57.6682 70.1575 52.6263C70.1575 47.5845 70.2893 42.4438 75.8584 42.4438C81.4275 42.4438 81.6911 47.1891 81.6911 52.2309C81.6911 57.2728 81.6911 69.2348 81.6911 69.2348C81.6911 69.2348 83.5365 66.4338 87.8863 66.4338C87.9852 66.4338 88.117 66.4338 88.2159 66.4338C93.1588 66.5985 94.477 69.6632 94.477 69.6632C94.477 69.6632 95.8281 68.6746 98.5632 68.6746C99.1234 68.6746 99.7825 68.7076 100.474 68.8394C103.177 69.2348 105.286 71.1131 105.813 73.1233C105.813 73.1233 106.703 72.8596 107.922 72.8596C109.998 72.8596 113.096 73.6176 114.776 77.7367C121.565 94.477 105.088 112.997 105.088 127.068H71.8051C71.2779 119.521 65.1815 103.803 58.1625 95.9928Z" fill="#2563EB"/>
<path d="M184.412 105.339H172.94V39.0583H184.412V105.339ZM207.765 56.0837L208.084 61.774C211.726 57.3735 216.505 55.1733 222.423 55.1733C232.681 55.1733 237.901 61.0457 238.083 72.7905V105.339H227.021V73.4278C227.021 70.3019 226.346 67.9879 224.995 66.4856C223.645 64.9834 221.437 64.2322 218.372 64.2322C213.911 64.2322 210.588 66.2504 208.402 70.2867V105.339H197.34V56.0837H207.765ZM263.212 44.1113V56.0837H271.906V64.2778H263.212V91.7734C263.212 93.655 263.583 95.013 264.327 95.8476C265.07 96.6822 266.398 97.0995 268.31 97.0995C269.585 97.0995 270.875 96.9478 272.179 96.6443V105.203C269.661 105.901 267.233 106.25 264.896 106.25C256.398 106.25 252.15 101.561 252.15 92.1831V64.2778H244.047V56.0837H252.15V44.1113H263.212ZM302.042 106.25C295.032 106.25 289.349 104.042 284.994 99.626C280.639 95.2103 278.462 89.3303 278.462 81.986V80.6204C278.462 75.7039 279.41 71.311 281.307 67.4416C283.204 63.5722 285.867 60.5601 289.296 58.4054C292.725 56.2506 296.549 55.1733 300.768 55.1733C307.475 55.1733 312.657 57.3128 316.314 61.5919C319.971 65.8711 321.799 71.9256 321.799 79.7554V84.2166H289.615C289.948 88.2833 291.307 91.5002 293.689 93.8674C296.071 96.2346 299.068 97.4182 302.68 97.4182C307.748 97.4182 311.875 95.3696 315.062 91.2726L321.025 96.9629C319.052 99.9067 316.42 102.19 313.127 103.814C309.834 105.438 306.139 106.25 302.042 106.25ZM300.722 64.0502C297.687 64.0502 295.237 65.1124 293.37 67.2367C291.504 69.3611 290.313 72.3201 289.797 76.1136H310.874V75.2942C310.631 71.5917 309.645 68.7921 307.915 66.8953C306.185 64.9985 303.787 64.0502 300.722 64.0502ZM356.169 66.1897C354.712 65.9469 353.21 65.8255 351.662 65.8255C346.594 65.8255 343.179 67.7678 341.419 71.6524V105.339H330.357V56.0837H340.918L341.192 61.5919C343.862 57.3128 347.565 55.1733 352.299 55.1733C353.877 55.1733 355.182 55.3857 356.214 55.8106L356.169 66.1897ZM381.342 91.3181L391.767 56.0837H403.193L386.122 105.339H376.517L359.31 56.0837H370.781L381.342 91.3181ZM421.857 105.339H410.796V56.0837H421.857V105.339ZM410.113 43.2919C410.113 41.5924 410.651 40.1812 411.729 39.0583C412.806 37.9354 414.346 37.374 416.349 37.374C418.352 37.374 419.9 37.9354 420.993 39.0583C422.085 40.1812 422.631 41.5924 422.631 43.2919C422.631 44.9611 422.085 46.3495 420.993 47.4572C419.9 48.5649 418.352 49.1188 416.349 49.1188C414.346 49.1188 412.806 48.5649 411.729 47.4572C410.651 46.3495 410.113 44.9611 410.113 43.2919ZM455.59 106.25C448.579 106.25 442.896 104.042 438.541 99.626C434.186 95.2103 432.009 89.3303 432.009 81.986V80.6204C432.009 75.7039 432.957 71.311 434.854 67.4416C436.751 63.5722 439.414 60.5601 442.843 58.4054C446.273 56.2506 450.097 55.1733 454.315 55.1733C461.022 55.1733 466.204 57.3128 469.861 61.5919C473.518 65.8711 475.346 71.9256 475.346 79.7554V84.2166H443.162C443.496 88.2833 444.854 91.5002 447.236 93.8674C449.619 96.2346 452.616 97.4182 456.227 97.4182C461.295 97.4182 465.423 95.3696 468.609 91.2726L474.573 96.9629C472.6 99.9067 469.967 102.19 466.674 103.814C463.382 105.438 459.687 106.25 455.59 106.25ZM454.27 64.0502C451.235 64.0502 448.784 65.1124 446.918 67.2367C445.051 69.3611 443.86 72.3201 443.344 76.1136H464.421V75.2942C464.178 71.5917 463.192 68.7921 461.462 66.8953C459.732 64.9985 457.335 64.0502 454.27 64.0502ZM527.197 90.089L535.026 56.0837H545.815L532.386 105.339H523.282L512.72 71.5158L502.341 105.339H493.237L479.762 56.0837H490.551L498.517 89.7249L508.623 56.0837H516.954L527.197 90.089ZM564.115 61.4554C567.727 57.2673 572.294 55.1733 577.818 55.1733C588.318 55.1733 593.644 61.1671 593.796 73.1547V105.339H582.734V73.5644C582.734 70.1653 581.998 67.7602 580.526 66.349C579.054 64.9378 576.892 64.2322 574.039 64.2322C569.608 64.2322 566.3 66.2049 564.115 70.1502V105.339H553.053V35.4165H564.115V61.4554ZM634.812 100.514C631.565 104.338 626.952 106.25 620.973 106.25C615.632 106.25 611.588 104.687 608.841 101.561C606.095 98.4348 604.721 93.9129 604.721 87.995V56.0837H615.783V87.8584C615.783 94.1102 618.378 97.2361 623.568 97.2361C628.939 97.2361 632.566 95.3089 634.448 91.4547V56.0837H645.51V105.339H635.085L634.812 100.514ZM700 81.2121C700 88.8599 698.293 94.9448 694.879 99.4667C691.465 103.989 686.768 106.25 680.789 106.25C675.023 106.25 670.532 104.171 667.315 100.013L666.769 105.339H656.754V35.4165H667.816V60.8181C671.002 57.0549 675.296 55.1733 680.698 55.1733C686.707 55.1733 691.427 57.4039 694.856 61.8651C698.285 66.3263 700 72.5629 700 80.5748V81.2121ZM688.938 80.2562C688.938 74.9149 687.997 70.9089 686.116 68.2382C684.234 65.5676 681.503 64.2322 677.922 64.2322C673.127 64.2322 669.758 66.3263 667.816 70.5144V90.8174C669.788 95.0965 673.187 97.2361 678.013 97.2361C681.472 97.2361 684.143 95.9463 686.025 93.3667C687.906 90.787 688.877 86.8873 688.938 81.6674V80.2562Z" fill="white"/>
</svg>
